<?xml version="1.0" encoding="UTF-8" standalone="no" ?>
<!DOCTYPE svg PUBLIC "-//W3C//DTD SVG 1.1//EN" "http://www.w3.org/Graphics/SVG/1.1/DTD/svg11.dtd">
<svg xmlns="http://www.w3.org/2000/svg" xmlns:xlink="http://www.w3.org/1999/xlink" version="1.1" width="400" height="400" viewBox="0 0 400 400" xml:space="preserve">
<desc>Created with Fabric.js 3.6.2</desc>
<defs>
</defs>
<g transform="matrix(8.33 0 0 8.33 200 200)" id="Слой_1"  >
<path style="stroke: none; stroke-width: 1; stroke-dasharray: none; stroke-linecap: butt; stroke-dashoffset: 0; stroke-linejoin: miter; stroke-miterlimit: 4; fill: rgb(29,29,27); fill-rule: nonzero; opacity: 1;"  transform=" translate(-13, -13)" d="M 23.2294922 4 H 2.7705078 C 1.7939453 4 1 4.84375 1 5.8808594 v 14.2382813 C 1 21.15625 1.7939453 22 2.7705078 22 h 20.4589844 C 24.2060547 22 25 21.15625 25 20.1191406 V 5.8808594 C 25 4.84375 24.2060547 4 23.2294922 4 z M 15.666687 13.0003052 L 23.5 7.3469849 v 11.3060913 L 15.666687 13.0003052 z M 23.2294922 5.5 c 0.0535278 0 0.1077881 0.0323486 0.1549072 0.0806885 L 13 13.0751343 L 2.6156006 5.5806885 C 2.6627197 5.5323486 2.71698 5.5 2.7705078 5.5 H 23.2294922 z M 2.5 18.6530151 V 7.3469849 l 7.8328247 5.6529541 L 2.5 18.6530151 z M 2.7705078 20.5 c -0.0535278 0 -0.1077881 -0.0324707 -0.1549072 -0.0807495 l 8.9987183 -6.4944458 l 0.9472046 0.6835938 c 0.0224609 0.0162964 0.0484619 0.0229492 0.0721436 0.036377 c 0.0231323 0.0131226 0.0447388 0.024231 0.0689697 0.03479 C 12.798584 14.7214966 12.8981323 14.75 12.9990234 14.75 c 0.0003662 0 0.0006104 -0.0002441 0.0009766 -0.0002441 S 13.0006104 14.75 13.0009766 14.75 c 0.1008911 0 0.2004395 -0.0285034 0.2963867 -0.0704346 c 0.024231 -0.0105591 0.0458374 -0.0216675 0.0689697 -0.03479 c 0.0236816 -0.0134277 0.0496826 -0.0200806 0.0721436 -0.036377 l 0.9467163 -0.6832886 l 8.9992065 6.4942017 C 23.3372803 20.4675903 23.28302 20.5 23.2294922 20.5 H 2.7705078 z" stroke-linecap="round" />
</g>
</svg>